<svg width="443" height="63" viewBox="0 0 443 63" xmlns="http://www.w3.org/2000/svg"><title>18AD29E4-1D54-48A6-8838-496BAA16E2FE</title><g fill="#FFF" fill-rule="evenodd"><path d="M70.92 27.11c.873.587 1.94.088 1.106-.909-5.51-7.753 1.074-12.755-7.849-19.596-.535-.09-.695.07-.48.48 7.755 6.74 1.322 12.642 7.223 20.02v.004zM29 62.927c.16-7.966-6.53-9.052-9.275-16.574-1.105-1.654-4.265-16.82-1.939-14.737 1.873 8.89 2.327 16.233 9.35 22.707.98 1.16 6.796 7.788 1.872 8.607L29 62.927zM43.87 56.661c1.804-8.553-4.839-10.683-3.101-17.122 1.489-3.138 2.031-1.546 1.163-.622-1.353 8.406 6.615 8.213 2.827 17.914-.663 1.813-1.26 1.438-.888-.17zM18.725 46.462c-1.838-2.08-8.795-17.23-5.282-16.574.536.124 2.715 10.366 5.282 16.574zM43.254 36.826c-2.532-.294-7.69-1.12-8.511-3.966 1.02-.386 4.533 2.443 9.275 3.093 1.605.846.163.846-.776.88l.012-.007zM30.908 33.305c-5.53-.943-10.857-4.054-16.895-4.661-5.39-1.886-5.04-8.963.303-10.525C16.58 12.465 21.97 7.502 26.766 4c2.246-.835-1.713 2.045-1.961 2.257-4.048 3.68-6.228 7.112-8.705 12.411-6.817 1.546-5.887 6.795-.179 9.319 4.479.692 7.887 1.19 11.633 3.733 1.163.48 8.26 1.318 3.335 1.585h.019z"/><path d="M57.872 25.123c-2.194-3.197-8.53-2.733-11.132-1.886-4.8 2.404-6.98-.55-8.581-.275-3.017.027-5.816-.41-7.755-.63-.776-.9 6.01-1.31 6.654-1.639 3.191-.626 4.602 3.99 8.69.9 5.529-2.813 7.754-1.499 11.95 2.189.198.301.775 1.337.178 1.337l-.004.004z"/><path d="M54.134 22.811c-1.66-2.133-2.818-7.417-1.624-10.099.911 0 .143 3.911.961 4.73 2.327-2.098 1.07.82.388 1.933-.054.553 1.055 3.255.268 3.448l.007-.012zM9.682 20.782C7.022 17.69 3.866 18.077.376 16.94c0-.997 6.204-.854 6.62-.87.414-.015 8.74-1.847 6.42 0-1.372.534-2.854 1.013-5.386 1.976 0 .425 2.943 2.524 1.64 2.736h.012zM53.208 12.194c-2.889-2.168 7.922-6.79 8.794-6.257 2.214-.568-.035.552-3.998 2.222-2.551 1.19-3.513 3.479-4.796 4.035zM59.14 47.722c5.894-4.963 10.722-10.208 8.667-17.246-1.067 6.81-4.828 12.055-8.667 17.246zM66.058 62.03c-1.05-8.534 2.64-13.976 10.113-21.996-1.94 6.312-8.725 7.73-7.868 22.583-.074.553-2.326.321-2.249-.587h.004zM75.674 41.924c1.73 4.657 10.082 1.12 11.222 3.29-.035-3.966-6.832-1.122-11.222-3.29zM92.596 48.328c4.85-.108 1.373-11.7-6.922-15.15 3.692 3.768 10.563 11.13 6.922 15.15zM72.13 27.078c4.545-1.522 8.244 1.763 12.133 5.531.341-.514.19-1.14-.492-1.87-2.874-4.008-6.263-6.687-11.478-4.704-.679.41-.388.723-.163 1.043zM35.673 0C28.52 3.645 23.08 10.119 19.047 18.939c1.55 1.932 12.485 1.16 9.918 3.501-5.494.514-12.435-.977-10.578-4.425C22.42 6.687 31.714.093 35.673.019V0z"/><text font-family="Avenir-Black, Avenir" font-size="22" font-weight="700" letter-spacing="3.02"><tspan x="122" y="46">TYCHO </tspan> <tspan x="223.588" y="46" font-family="Avenir-Medium, Avenir" font-weight="400">ENTERTAINMEN</tspan> <tspan x="430.504" y="46" font-family="Avenir-Medium, Avenir" font-weight="400">T</tspan></text></g></svg>